<svg width="800" height="800" viewBox="0 0 800 800" fill="none" xmlns="http://www.w3.org/2000/svg">
  <rect width="800" height="800" fill="#f1f5f9"/>
  <path d="M400 250C323.8 250 262 311.8 262 388C262 464.2 323.8 526 400 526C476.2 526 538 464.2 538 388C538 311.8 476.2 250 400 250ZM400 476C351.4 476 312 436.6 312 388C312 339.4 351.4 300 400 300C448.6 300 488 339.4 488 388C488 436.6 448.6 476 400 476Z" fill="#94a3b8"/>
  <path d="M400 350C383.4 350 370 363.4 370 380C370 396.6 383.4 410 400 410C416.6 410 430 396.6 430 380C430 363.4 416.6 350 400 350Z" fill="#94a3b8"/>
  <path d="M275 587.5L339.4 503.1C345.8 494.7 358.2 493.2 366.5 499.8L413.9 538.1C422.3 544.8 434.8 543.1 441.3 534.6L459.4 510.1C465.9 501.6 478.3 500 486.8 506.5L550 557.5" stroke="#94a3b8" stroke-width="20" stroke-linecap="round" stroke-linejoin="round"/>
</svg> 